# xmcd
#
# Track frame offsets: 
#        317
#        12042
#        23552
#        34885
#        46527
#        58057
#        70302
#        83992
#        95330
#        106545
#        117850
#        132655
#        143560
#        155770
#        168007
#        182087
#        193952
#        205462
#        218045
#        232627
#        243697
#        257420
#        267035
#        278972
#        291950
#        303755
#        315510
#
# Disc length: 4366 seconds
#
# Revision: 0
# Processed by: cddbd v1.5.2PL0 Copyright (c) Steve Scherf et al.
# Submitted via: ExactAudioCopy v0.99pb5
#
DISCID=73110a1b
DTITLE=Various Artist - Atlantic Rhythm and Blues Vol5 
DYEAR=1985
DGENRE=rhythm and blues
TTITLE0=The Drifters - Upon the roof
TTITLE1=LaVern Baker - See see rider
TTITLE2=Ben E. King - I who have nothing
TTITLE3=Solomon Burke - If you need me
TTITLE4=Otis Redding - These arms of mine
TTITLE5=Barbara Lewis - Hello Stranger
TTITLE6=The Drifters - On Broadway
TTITLE7=Doris Troy - Just one look
TTITLE8=Chris Kenner - Land of 1000 dances
TTITLE9=Rufus Thomas - Walkin'the dog
TTITLE10=Esther Phillips - Release me
TTITLE11=Don Covay - Mercy mercy
TTITLE12=The Drifters - Under the boardwalk
TTITLE13=Esther Phillips - And I love him
TTITLE14=Joe Tex - Hold what you've got
TTITLE15=Otis Redding - Mr. Pitiful
TTITLE16=Barbara Lewis - Baby I'm yours
TTITLE17=Willie Tee - Teasin' you
TTITLE18=Otis Reading - I've been loving you too long
TTITLE19=Wilson Picket - In the midnight hour
TTITLE20=Don Covay - See-saw
TTITLE21=Otis Reading - Respect
TTITLE22=Sam and Dave - You don't know like I know
TTITLE23=Percy Sledge - When a man loves a woman
TTITLE24=Sam and Dave - Hold on I'm comin'
TTITLE25=The Capitols - Cool yerk
TTITLE26=Jimmy Hughes - Neighbor neighbor
EXTD=
EXTT0=
EXTT1=
EXTT2=
EXTT3=
EXTT4=
EXTT5=
EXTT6=
EXTT7=
EXTT8=
EXTT9=
EXTT10=
EXTT11=
EXTT12=
EXTT13=
EXTT14=
EXTT15=
EXTT16=
EXTT17=
EXTT18=
EXTT19=
EXTT20=
EXTT21=
EXTT22=
EXTT23=
EXTT24=
EXTT25=
EXTT26=
PLAYORDER=
